# xmcd
#
# Track frame offsets:
#	150
#	19327
#	41157
#	67523
#	83582
#	107542
#	122966
#	144258
#	164254
#
# Disc length: 2445 seconds
#
# Revision: 1
# Processed by: cddbd v1.5.2PL0 Copyright (c) Steve Scherf et al.
# Submitted via: audiograbber 1.83.01
#
DISCID=6a098b09
DTITLE=Gaynor - Feel The Presence
DYEAR=1994
DGENRE=Pop
TTITLE0=Working Man
TTITLE1=Miss You Allways
TTITLE2=Slipping Away
TTITLE3=Tears
TTITLE4=Society Breaker
TTITLE5=I've Been Wondering
TTITLE6=Isn't Life Strange
TTITLE7=Feel The Presence
TTITLE8=Don't Ask Me
EXTD=Hit Master Records
EXTT0=
EXTT1=
EXTT2=
EXTT3=
EXTT4=
EXTT5=
EXTT6=
EXTT7=
EXTT8=
PLAYORDER=
